<svg width="33" height="32" viewBox="0 0 33 32" fill="none" xmlns="http://www.w3.org/2000/svg">
    <g id="cloud_upload_FILL0_wght400_GRAD0_opsz24 1">
    <path id="Vector" d="M9.16668 26.6667C7.14445 26.6667 5.41668 25.9667 3.98334 24.5667C2.55001 23.1667 1.83334 21.4556 1.83334 19.4333C1.83334 17.7 2.35557 16.1556 3.40001 14.8C4.44445 13.4445 5.81112 12.5778 7.50001 12.2C8.05557 10.1556 9.16668 8.50001 10.8333 7.23334C12.5 5.96668 14.3889 5.33334 16.5 5.33334C19.1 5.33334 21.3056 6.2389 23.1167 8.05001C24.9278 9.86112 25.8333 12.0667 25.8333 14.6667C27.3667 14.8445 28.6389 15.5056 29.65 16.65C30.6611 17.7945 31.1667 19.1333 31.1667 20.6667C31.1667 22.3333 30.5833 23.75 29.4167 24.9167C28.25 26.0833 26.8333 26.6667 25.1667 26.6667H17.8333C17.1 26.6667 16.4722 26.4056 15.95 25.8833C15.4278 25.3611 15.1667 24.7333 15.1667 24V17.0667L13.9667 18.2667C13.7222 18.5111 13.4111 18.6333 13.0333 18.6333C12.6556 18.6333 12.3445 18.5111 12.1 18.2667C11.8556 18.0222 11.7333 17.7111 11.7333 17.3333C11.7333 16.9556 11.8556 16.6445 12.1 16.4L15.5667 12.9333C15.7 12.8 15.8445 12.7056 16 12.65C16.1556 12.5945 16.3222 12.5667 16.5 12.5667C16.6778 12.5667 16.8445 12.5945 17 12.65C17.1556 12.7056 17.3 12.8 17.4333 12.9333L20.9 16.4C21.1445 16.6445 21.2667 16.9556 21.2667 17.3333C21.2667 17.7111 21.1445 18.0222 20.9 18.2667C20.6556 18.5111 20.3445 18.6333 19.9667 18.6333C19.5889 18.6333 19.2778 18.5111 19.0333 18.2667L17.8333 17.0667V24H25.1667C26.1 24 26.8889 23.6778 27.5333 23.0333C28.1778 22.3889 28.5 21.6 28.5 20.6667C28.5 19.7333 28.1778 18.9445 27.5333 18.3C26.8889 17.6556 26.1 17.3333 25.1667 17.3333H23.1667V14.6667C23.1667 12.8222 22.5167 11.25 21.2167 9.95001C19.9167 8.65001 18.3445 8.00001 16.5 8.00001C14.6556 8.00001 13.0833 8.65001 11.7833 9.95001C10.4833 11.25 9.83334 12.8222 9.83334 14.6667H9.16668C7.87779 14.6667 6.77779 15.1222 5.86668 16.0333C4.95557 16.9445 4.50001 18.0445 4.50001 19.3333C4.50001 20.6222 4.95557 21.7222 5.86668 22.6333C6.77779 23.5445 7.87779 24 9.16668 24H11.1667C11.5445 24 11.8611 24.1278 12.1167 24.3833C12.3722 24.6389 12.5 24.9556 12.5 25.3333C12.5 25.7111 12.3722 26.0278 12.1167 26.2833C11.8611 26.5389 11.5445 26.6667 11.1667 26.6667H9.16668Z" fill="#3498DB"/>
    </g>
    </svg>