<svg width="33" height="32" viewBox="0 0 33 32" fill="none" xmlns="http://www.w3.org/2000/svg">
    <g id="format_quote_FILL0_wght400_GRAD0_opsz24 1">
    <path id="Vector" d="M23.7667 22L21.8334 18.6667C23.3 18.6667 24.5556 18.1444 25.6 17.1C26.6445 16.0556 27.1667 14.8 27.1667 13.3333C27.1667 11.8667 26.6445 10.6111 25.6 9.56667C24.5556 8.52222 23.3 8 21.8334 8C20.3667 8 19.1111 8.52222 18.0667 9.56667C17.0222 10.6111 16.5 11.8667 16.5 13.3333C16.5 13.8444 16.5611 14.3167 16.6834 14.75C16.8056 15.1833 16.9889 15.6 17.2334 16L21.4667 23.3333C21.5778 23.5333 21.7334 23.6944 21.9334 23.8167C22.1334 23.9389 22.3556 24 22.6 24C23.1111 24 23.4945 23.7778 23.75 23.3333C24.0056 22.8889 24.0111 22.4444 23.7667 22ZM11.7667 22L9.83335 18.6667C11.3 18.6667 12.5556 18.1444 13.6 17.1C14.6445 16.0556 15.1667 14.8 15.1667 13.3333C15.1667 11.8667 14.6445 10.6111 13.6 9.56667C12.5556 8.52222 11.3 8 9.83335 8C8.36669 8 7.11113 8.52222 6.06669 9.56667C5.02224 10.6111 4.50002 11.8667 4.50002 13.3333C4.50002 13.8444 4.56113 14.3167 4.68336 14.75C4.80558 15.1833 4.98891 15.6 5.23335 16L9.46669 23.3333C9.5778 23.5333 9.73335 23.6944 9.93336 23.8167C10.1334 23.9389 10.3556 24 10.6 24C11.1111 24 11.4945 23.7778 11.75 23.3333C12.0056 22.8889 12.0111 22.4444 11.7667 22ZM21.8334 15.3333C21.2778 15.3333 20.8056 15.1389 20.4167 14.75C20.0278 14.3611 19.8334 13.8889 19.8334 13.3333C19.8334 12.7778 20.0278 12.3056 20.4167 11.9167C20.8056 11.5278 21.2778 11.3333 21.8334 11.3333C22.3889 11.3333 22.8611 11.5278 23.25 11.9167C23.6389 12.3056 23.8334 12.7778 23.8334 13.3333C23.8334 13.8889 23.6389 14.3611 23.25 14.75C22.8611 15.1389 22.3889 15.3333 21.8334 15.3333ZM9.83335 15.3333C9.2778 15.3333 8.80558 15.1389 8.41669 14.75C8.0278 14.3611 7.83335 13.8889 7.83335 13.3333C7.83335 12.7778 8.0278 12.3056 8.41669 11.9167C8.80558 11.5278 9.2778 11.3333 9.83335 11.3333C10.3889 11.3333 10.8611 11.5278 11.25 11.9167C11.6389 12.3056 11.8334 12.7778 11.8334 13.3333C11.8334 13.8889 11.6389 14.3611 11.25 14.75C10.8611 15.1389 10.3889 15.3333 9.83335 15.3333Z" fill="#3498DB"/>
    </g>
    </svg>