<svg width="33" height="32" viewBox="0 0 33 32" fill="none" xmlns="http://www.w3.org/2000/svg">
    <g id="frame_inspect_FILL0_wght400_GRAD0_opsz24 1">
    <path id="Vector" d="M15.5 18C16.3444 18 17.0556 17.7111 17.6333 17.1333C18.2111 16.5556 18.5 15.8444 18.5 15C18.5 14.1556 18.2111 13.4444 17.6333 12.8667C17.0556 12.2889 16.3444 12 15.5 12C14.6556 12 13.9444 12.2889 13.3667 12.8667C12.7889 13.4444 12.5 14.1556 12.5 15C12.5 15.8444 12.7889 16.5556 13.3667 17.1333C13.9444 17.7111 14.6556 18 15.5 18ZM15.5 20.6667C13.9222 20.6667 12.5833 20.1167 11.4833 19.0167C10.3833 17.9167 9.83333 16.5778 9.83333 15C9.83333 13.4222 10.3833 12.0833 11.4833 10.9833C12.5833 9.88333 13.9222 9.33333 15.5 9.33333C17.0778 9.33333 18.4167 9.88333 19.5167 10.9833C20.6167 12.0833 21.1667 13.4222 21.1667 15C21.1667 15.5111 21.0944 16.0167 20.95 16.5167C20.8056 17.0167 20.5889 17.4889 20.3 17.9333L22.9 20.5333C23.1667 20.8 23.2944 21.1111 23.2833 21.4667C23.2722 21.8222 23.1333 22.1333 22.8667 22.4C22.6 22.6444 22.2889 22.7722 21.9333 22.7833C21.5778 22.7944 21.2667 22.6667 21 22.4L18.4333 19.8333C17.9889 20.1222 17.5167 20.3333 17.0167 20.4667C16.5167 20.6 16.0111 20.6667 15.5 20.6667ZM7.16667 28C6.43333 28 5.80556 27.7389 5.28333 27.2167C4.76111 26.6944 4.5 26.0667 4.5 25.3333V21.3333C4.5 20.9556 4.62778 20.6389 4.88333 20.3833C5.13889 20.1278 5.45556 20 5.83333 20C6.21111 20 6.52778 20.1278 6.78333 20.3833C7.03889 20.6389 7.16667 20.9556 7.16667 21.3333V25.3333H11.1667C11.5444 25.3333 11.8611 25.4611 12.1167 25.7167C12.3722 25.9722 12.5 26.2889 12.5 26.6667C12.5 27.0444 12.3722 27.3611 12.1167 27.6167C11.8611 27.8722 11.5444 28 11.1667 28H7.16667ZM25.8333 28H21.8333C21.4556 28 21.1389 27.8722 20.8833 27.6167C20.6278 27.3611 20.5 27.0444 20.5 26.6667C20.5 26.2889 20.6278 25.9722 20.8833 25.7167C21.1389 25.4611 21.4556 25.3333 21.8333 25.3333H25.8333V21.3333C25.8333 20.9556 25.9611 20.6389 26.2167 20.3833C26.4722 20.1278 26.7889 20 27.1667 20C27.5444 20 27.8611 20.1278 28.1167 20.3833C28.3722 20.6389 28.5 20.9556 28.5 21.3333V25.3333C28.5 26.0667 28.2389 26.6944 27.7167 27.2167C27.1944 27.7389 26.5667 28 25.8333 28ZM4.5 10.6667V6.66667C4.5 5.93333 4.76111 5.30556 5.28333 4.78333C5.80556 4.26111 6.43333 4 7.16667 4H11.1667C11.5444 4 11.8611 4.12778 12.1167 4.38333C12.3722 4.63889 12.5 4.95556 12.5 5.33333C12.5 5.71111 12.3722 6.02778 12.1167 6.28333C11.8611 6.53889 11.5444 6.66667 11.1667 6.66667H7.16667V10.6667C7.16667 11.0444 7.03889 11.3611 6.78333 11.6167C6.52778 11.8722 6.21111 12 5.83333 12C5.45556 12 5.13889 11.8722 4.88333 11.6167C4.62778 11.3611 4.5 11.0444 4.5 10.6667ZM25.8333 10.6667V6.66667H21.8333C21.4556 6.66667 21.1389 6.53889 20.8833 6.28333C20.6278 6.02778 20.5 5.71111 20.5 5.33333C20.5 4.95556 20.6278 4.63889 20.8833 4.38333C21.1389 4.12778 21.4556 4 21.8333 4H25.8333C26.5667 4 27.1944 4.26111 27.7167 4.78333C28.2389 5.30556 28.5 5.93333 28.5 6.66667V10.6667C28.5 11.0444 28.3722 11.3611 28.1167 11.6167C27.8611 11.8722 27.5444 12 27.1667 12C26.7889 12 26.4722 11.8722 26.2167 11.6167C25.9611 11.3611 25.8333 11.0444 25.8333 10.6667Z" fill="#3498DB"/>
    </g>
    </svg>