<svg width="33" height="32" viewBox="0 0 33 32" fill="none" xmlns="http://www.w3.org/2000/svg">
    <g id="payments_FILL0_wght400_GRAD0_opsz24 1">
    <path id="Vector" d="M19.1667 17.3333C18.0556 17.3333 17.1111 16.9444 16.3333 16.1666C15.5556 15.3889 15.1667 14.4444 15.1667 13.3333C15.1667 12.2222 15.5556 11.2778 16.3333 10.5C17.1111 9.7222 18.0556 9.33331 19.1667 9.33331C20.2778 9.33331 21.2222 9.7222 22 10.5C22.7778 11.2778 23.1667 12.2222 23.1667 13.3333C23.1667 14.4444 22.7778 15.3889 22 16.1666C21.2222 16.9444 20.2778 17.3333 19.1667 17.3333ZM9.83334 21.3333C9.10001 21.3333 8.47223 21.0722 7.95001 20.55C7.42779 20.0278 7.16668 19.4 7.16668 18.6666V7.99998C7.16668 7.26665 7.42779 6.63887 7.95001 6.11665C8.47223 5.59442 9.10001 5.33331 9.83334 5.33331H28.5C29.2333 5.33331 29.8611 5.59442 30.3833 6.11665C30.9056 6.63887 31.1667 7.26665 31.1667 7.99998V18.6666C31.1667 19.4 30.9056 20.0278 30.3833 20.55C29.8611 21.0722 29.2333 21.3333 28.5 21.3333H9.83334ZM12.5 18.6666H25.8333C25.8333 17.9333 26.0945 17.3055 26.6167 16.7833C27.1389 16.2611 27.7667 16 28.5 16V10.6666C27.7667 10.6666 27.1389 10.4055 26.6167 9.88331C26.0945 9.36109 25.8333 8.73331 25.8333 7.99998H12.5C12.5 8.73331 12.2389 9.36109 11.7167 9.88331C11.1945 10.4055 10.5667 10.6666 9.83334 10.6666V16C10.5667 16 11.1945 16.2611 11.7167 16.7833C12.2389 17.3055 12.5 17.9333 12.5 18.6666ZM4.50001 26.6666C3.76668 26.6666 3.1389 26.4055 2.61668 25.8833C2.09445 25.3611 1.83334 24.7333 1.83334 24V10.6666C1.83334 10.2889 1.96112 9.9722 2.21668 9.71665C2.47223 9.46109 2.7889 9.33331 3.16668 9.33331C3.54445 9.33331 3.86112 9.46109 4.11668 9.71665C4.37223 9.9722 4.50001 10.2889 4.50001 10.6666V24H25.8333C26.2111 24 26.5278 24.1278 26.7833 24.3833C27.0389 24.6389 27.1667 24.9555 27.1667 25.3333C27.1667 25.7111 27.0389 26.0278 26.7833 26.2833C26.5278 26.5389 26.2111 26.6666 25.8333 26.6666H4.50001Z" fill="#3498DB"/>
    </g>
    </svg>