<svg width="40" height="40" viewBox="0 0 40 40" fill="none" xmlns="http://www.w3.org/2000/svg">
    <g id="spark, sparks, sparkle, stars, 30">
    <path id="Vector" d="M6.78952 13.378C7.68971 13.8303 8.58971 14.3775 9.34483 15.1345C9.71684 15.5137 10.0437 15.9347 10.319 16.389C10.5868 16.8361 10.8143 17.3061 10.9987 17.7935C11.3811 18.8179 11.5887 19.8778 11.7497 20.9163C11.7919 21.1739 11.8299 21.4315 11.8657 21.6882L11.9688 22.4568L11.0296 22.5737C10.879 21.3647 10.7611 20.1224 10.8644 18.8622C10.9628 17.6075 11.2926 16.329 11.9615 15.2091C12.1294 14.9276 12.3184 14.6591 12.5268 14.406C12.7357 14.1483 12.9679 13.9103 13.2204 13.695C13.2819 13.6384 13.3487 13.5893 13.4141 13.5381C13.4804 13.4882 13.5442 13.4341 13.6128 13.388C13.7498 13.2951 13.8856 13.1993 14.029 13.1186C14.3103 12.9512 14.6034 12.8047 14.9061 12.6803C15.2034 12.5574 15.5072 12.4511 15.8162 12.3618C16.1223 12.2763 16.4296 12.1973 16.736 12.1355C17.3495 12.0051 17.9591 11.9173 18.5603 11.8309L18.6195 12.9701L18.0839 12.9586C17.5018 12.9477 16.9145 12.9165 16.3227 12.8687C15.7169 12.8251 15.1152 12.7362 14.5227 12.6026C13.898 12.463 13.2995 12.2253 12.7494 11.8981C12.4652 11.7226 12.2024 11.5145 11.9664 11.2781C11.7314 11.0403 11.5269 10.7743 11.3574 10.4861C11.0228 9.92309 10.8176 9.33402 10.6421 8.76738C10.465 8.19724 10.3175 7.61831 10.2001 7.03293C10.0799 6.44855 9.99399 5.85761 9.94291 5.26317C9.9183 4.96607 9.89912 4.66863 9.88986 4.37088L9.88303 4.14762C9.88127 4.07322 9.88315 3.99866 9.87689 3.92437C9.86834 3.77566 9.86649 3.62671 9.86104 3.47778L10.8709 3.52559C10.786 4.61227 10.6952 5.71752 10.4858 6.82818C10.4572 6.96675 10.4311 7.10594 10.4003 7.24418L10.2967 7.65828L10.1784 8.07071L10.0438 8.48046C9.85311 9.03081 9.60967 9.56145 9.31689 10.065C8.75076 11.0168 7.97428 11.8264 7.04693 12.4318C6.68841 12.6729 6.29618 12.8595 5.88299 12.9857C5.73211 13.0289 5.57802 13.06 5.42219 13.0788C5.35274 13.0863 5.2873 13.0913 5.22586 13.0935L5.18048 13.0949L5.14376 13.0903C5.11797 13.0867 5.09311 13.0833 5.06915 13.0801C4.77204 13.0367 4.60708 12.985 4.83598 12.7599C4.8691 12.7287 4.90411 12.6996 4.94083 12.6727C4.96003 12.6577 4.98716 12.6408 5.00446 12.6267C5.02055 12.6132 5.03735 12.5992 5.05486 12.5846C5.12486 12.5265 5.20944 12.4698 5.3028 12.4026C5.39537 12.3339 5.50299 12.2685 5.616 12.1877C5.67334 12.1495 5.73325 12.1095 5.79572 12.0678C5.85701 12.0244 5.92117 11.9803 5.98818 11.9356C6.33496 11.6977 6.6658 11.4374 6.97858 11.1564C7.29802 10.8739 7.59521 10.5671 7.86749 10.2389C8.23862 9.78632 8.55057 9.28825 8.7958 8.75677C9.0437 8.21398 9.24093 7.64945 9.38498 7.07037C9.6942 5.90327 9.834 4.67568 9.96521 3.43837L9.96529 3.43767C9.9762 3.33516 10.0259 3.2407 10.1042 3.17363C10.1825 3.10657 10.2835 3.07198 10.3864 3.07695C10.4894 3.08191 10.5866 3.12606 10.658 3.20034C10.7295 3.27463 10.7699 3.37343 10.7709 3.47651C10.7727 3.67724 10.7661 3.87835 10.7802 4.07891C10.7929 4.2794 10.808 4.47964 10.8283 4.67936C10.8671 5.07896 10.9247 5.47616 10.9905 5.87128C11.1208 6.66103 11.3116 7.43957 11.5614 8.2C11.7212 8.72003 11.9288 9.22416 12.1814 9.70595C12.3003 9.9237 12.4404 10.1292 12.5997 10.3193C12.7551 10.498 12.9273 10.6614 13.1139 10.8072C13.2891 10.9383 13.475 11.0543 13.6698 11.1539C13.8735 11.2542 14.0838 11.3406 14.2992 11.4124C14.7499 11.5563 15.2132 11.6577 15.6828 11.7152C16.6447 11.8404 17.6445 11.8587 18.65 11.8958L18.6559 11.896C18.7818 11.9007 18.9014 11.9525 18.991 12.0412C19.0805 12.1299 19.1335 12.2491 19.1393 12.375C19.1451 12.5009 19.1034 12.6244 19.0224 12.721C18.9414 12.8176 18.827 12.8802 18.702 12.8964C17.9386 12.9955 17.1875 13.0992 16.4656 13.2674C15.7467 13.4392 15.0505 13.6644 14.4357 14.0179C14.1735 14.1677 13.9259 14.3417 13.6962 14.5377C13.4679 14.7382 13.2587 14.9594 13.0714 15.1986C12.6975 15.6933 12.4036 16.2436 12.2004 16.8295C11.9924 17.4239 11.8582 18.0416 11.8009 18.6688C11.7412 19.3063 11.728 19.9473 11.7612 20.5867C11.7879 21.2091 11.8512 21.8353 11.9246 22.4637L11.9251 22.4678C11.9383 22.5805 11.9062 22.6938 11.8359 22.7829C11.7657 22.872 11.6629 22.9296 11.5503 22.9431C11.4376 22.9565 11.3242 22.9248 11.2349 22.8548C11.1456 22.7848 11.0878 22.6822 11.074 22.5696C10.9506 21.5603 10.8204 20.5597 10.5871 19.5951C10.4775 19.115 10.3375 18.6424 10.1678 18.1801C9.99843 17.726 9.78671 17.2889 9.53543 16.8745C9.46948 16.7743 9.40823 16.6704 9.33886 16.5728L9.12446 16.2847C8.97367 16.0993 8.81331 15.922 8.64403 15.7533C8.29368 15.4176 7.90974 15.1187 7.49826 14.8615C7.29106 14.73 7.07746 14.6059 6.85928 14.4877C6.75021 14.4286 6.64008 14.3709 6.52888 14.3145L6.36141 14.2307L6.2777 14.1897L6.19817 14.1541C6.09442 14.1042 5.98057 14.0638 5.86996 14.0201C5.75488 13.9826 5.64239 13.94 5.52426 13.9077C5.29172 13.8353 5.0516 13.7805 4.81164 13.7285C4.34623 13.6314 3.87402 13.5705 3.39922 13.5461C2.93903 13.5235 2.48492 13.5505 2.10751 13.6812L1.99903 13.2497L1.99868 13.2211H1.99911H2.00176H2.00532H2.01243L2.02664 13.2212C2.03587 13.2214 2.04532 13.2216 2.0586 13.221L2.13204 13.2186L2.28141 13.2124C2.3816 13.2079 2.48123 13.2034 2.58028 13.199C2.77915 13.1911 2.9756 13.1833 3.16961 13.1756C3.55828 13.1615 3.93774 13.1531 4.30848 13.1453C4.43463 13.1405 4.56094 13.1455 4.68633 13.16C4.73496 13.1639 4.76403 13.1786 4.80888 13.1784C4.83807 13.1776 4.86682 13.1857 4.89128 13.2017L4.96488 13.1158C4.95448 13.155 4.94008 13.1723 4.94694 13.1758C4.95163 13.1793 4.97718 13.1682 5.00054 13.1307C5.00336 13.1262 5.00516 13.1211 5.00579 13.1159C5.00642 13.1106 5.00588 13.1052 5.0042 13.1002C5.00252 13.0951 4.99975 13.0905 4.99607 13.0867C4.9924 13.0828 4.98793 13.0798 4.98296 13.0779C4.978 13.076 4.97268 13.0752 4.96737 13.0756C4.96207 13.076 4.95691 13.0775 4.95227 13.0801C4.94764 13.0827 4.94364 13.0863 4.94056 13.0907C4.93747 13.095 4.93539 13.1 4.93445 13.1052L4.91152 13.2347C4.90726 13.2587 4.87492 13.2952 4.81488 13.3359C4.7732 13.3699 4.7278 13.399 4.67956 13.4228C4.53089 13.4955 4.37408 13.5502 4.21246 13.5858C3.86234 13.6664 3.50972 13.7376 3.15187 13.8052C2.97305 13.839 2.79298 13.8714 2.61168 13.9026L2.33728 13.9481L2.19626 13.9697L2.12286 13.9801C2.09528 13.9837 2.05406 13.9874 2.02017 13.9903C1.89877 14.0007 1.77754 13.9684 1.67748 13.8989C1.57742 13.8293 1.50484 13.727 1.47231 13.6096C1.43979 13.4921 1.44936 13.367 1.49938 13.2559C1.5494 13.1448 1.63671 13.0547 1.74618 13.0012L1.78118 12.9843C2.06317 12.8531 2.3627 12.7635 2.67042 12.7182C2.81296 12.701 2.95835 12.6787 3.09812 12.6736C3.16852 12.6697 3.23964 12.664 3.30956 12.6622L3.51827 12.6605C4.0721 12.6659 4.62376 12.7304 5.16393 12.8528C5.43687 12.9117 5.70669 12.9842 5.97237 13.0701L6.17389 13.1373L6.37629 13.2143C6.44324 13.2383 6.51216 13.2708 6.5802 13.3003L6.68235 13.3456L6.77336 13.3895C6.77861 13.3855 6.78353 13.3818 6.78952 13.378Z" fill="#3498DB"/>
    <path id="Vector_2" d="M30.7187 15.7133C31.188 16.276 31.5665 16.9087 31.8404 17.5883C31.874 17.6734 31.9101 17.7573 31.941 17.8433L32.0234 18.1055C32.0496 18.1932 32.0803 18.2794 32.1023 18.3683L32.1627 18.6366C32.1811 18.7264 32.2061 18.8145 32.2185 18.9055L32.2559 19.1782L32.2741 19.3145C32.2804 19.3595 32.2865 19.4049 32.2897 19.4549C32.2971 19.5529 32.3008 19.6542 32.2983 19.7596C32.2958 19.9491 32.2649 20.1372 32.2069 20.3176C32.1708 20.4227 32.1225 20.5233 32.063 20.6171C31.9968 20.7172 31.9165 20.8073 31.8246 20.8845L31.8181 20.89C31.742 20.9538 31.6485 20.9932 31.5496 21.0029C31.4508 21.0125 31.3514 20.9921 31.2644 20.9443C31.1774 20.8964 31.1069 20.8234 31.0621 20.7347C31.0174 20.6461 31.0005 20.546 31.0137 20.4476C31.0753 19.9917 31.1627 19.5396 31.2755 19.0936C31.4591 18.348 31.7436 17.6308 32.1211 16.9621C32.508 16.2784 33.0135 15.6691 33.614 15.1626C34.2289 14.6547 34.939 14.2746 35.7028 14.0448C36.4873 13.8115 37.3168 13.7725 38.1198 13.9312C38.2377 13.9555 38.3452 14.0159 38.4273 14.104C38.5094 14.192 38.5622 14.3034 38.5783 14.4228C38.5943 14.5421 38.5729 14.6635 38.517 14.7702C38.4611 14.8768 38.3734 14.9635 38.2661 15.0182L38.2555 15.0235C37.9942 15.1527 37.7142 15.2398 37.4257 15.2819C37.1605 15.3191 36.8923 15.3298 36.625 15.3138C36.3688 15.3011 36.1247 15.2707 35.8901 15.2371C35.6561 15.2027 35.4328 15.1692 35.1905 15.1249C34.8419 15.0663 34.5008 14.9698 34.1731 14.8372C33.9938 14.7619 33.8223 14.6691 33.6611 14.5602C33.4966 14.4479 33.3447 14.3181 33.2081 14.1731C32.9545 13.8952 32.7473 13.5783 32.5944 13.2346C32.4528 12.917 32.3417 12.5867 32.2625 12.2482C31.9428 10.9362 31.9698 9.56366 32.3408 8.26529L32.3414 8.26338C32.3738 8.15022 32.4387 8.04903 32.528 7.97227C32.6172 7.89551 32.727 7.84654 32.8437 7.83138C32.9605 7.81622 33.0791 7.83554 33.185 7.88696C33.2909 7.93838 33.3795 8.01965 33.4398 8.12077C33.6288 8.4492 33.7311 8.82034 33.7371 9.19924C33.7432 9.5314 33.7021 9.86274 33.615 10.1833C33.5765 10.338 33.5266 10.481 33.479 10.6256C33.4259 10.7682 33.3741 10.9115 33.311 11.0497C33.1907 11.3284 33.0496 11.5977 32.8888 11.8552C32.25 12.8952 31.3241 13.7283 30.2226 14.254C29.5218 14.5825 28.7609 14.763 27.9872 14.7841C27.6837 14.7947 27.3806 14.7531 27.0911 14.6611C27.0324 14.6414 26.9775 14.6211 26.9263 14.5998C26.8752 14.5763 26.8278 14.5523 26.7841 14.5279C26.704 14.485 26.6294 14.4325 26.5622 14.3714C26.3853 14.212 26.4189 14.0837 26.5946 13.9998C26.771 13.9177 27.0897 13.8744 27.5227 13.8309L27.7302 13.8085L27.9401 13.7804C28.0806 13.759 28.2229 13.7412 28.3647 13.7146C28.6477 13.6646 28.9275 13.5977 29.2025 13.5143C29.7333 13.3492 30.2316 13.0938 30.6754 12.7592C31.5725 12.085 32.224 11.1355 32.5304 10.056C32.6036 9.81002 32.6407 9.55475 32.6407 9.29814C32.6439 9.08635 32.587 8.87798 32.4767 8.69721L33.4202 8.57313C33.3241 8.95505 33.264 9.34515 33.2408 9.7383C33.1959 10.4642 33.2948 11.2106 33.4198 11.8964C33.5064 12.3851 33.6581 12.8478 33.9045 13.2035C34.0206 13.3746 34.1676 13.5223 34.3381 13.6392C34.524 13.7574 34.7265 13.8472 34.939 13.9056C35.1812 13.9726 35.4272 14.0249 35.6758 14.0622C35.9406 14.105 36.2041 14.148 36.4522 14.1733C36.9511 14.227 37.4106 14.2067 37.762 14.0345L37.8834 15.0111L37.7092 14.978L37.6222 14.9608L37.5339 14.9504L37.3572 14.929L37.1787 14.9201C36.7729 14.9046 36.3672 14.9522 35.976 15.061C35.5777 15.1727 35.1958 15.3364 34.8402 15.5476C34.4822 15.7593 34.1519 16.0143 33.8566 16.3071C33.5584 16.6042 33.2936 16.9331 33.0668 17.2877C32.444 18.2499 32.0767 19.3892 31.9242 20.5536L31.2352 20.1824C31.2763 20.1478 31.3074 20.1028 31.3252 20.0521C31.3539 19.9732 31.3703 19.8903 31.3737 19.8064C31.3791 19.7021 31.3764 19.5976 31.3655 19.4938L31.3159 19.1464C31.299 19.0304 31.2755 18.9155 31.2456 18.8021L31.2062 18.6304C31.1942 18.5728 31.1717 18.518 31.155 18.4616C31.1177 18.35 31.0859 18.2363 31.0446 18.1258L30.9093 17.7983C30.7133 17.3654 30.4696 16.9558 30.1827 16.5771C29.889 16.2008 29.5565 15.8565 29.1909 15.5497C28.7291 15.1722 28.2265 14.8475 27.6925 14.5819C27.6604 14.5651 27.6288 14.5469 27.5965 14.531L27.498 14.4877L27.3023 14.3991C27.1737 14.3338 27.0399 14.2905 26.9087 14.2377L26.712 14.1592C26.6476 14.136 26.5839 14.1152 26.5197 14.0989C26.3929 14.0595 26.2572 14.0589 26.1301 14.0973C26.099 14.1091 26.0707 14.1238 26.0484 14.1339C26.0479 14.1341 26.0475 14.1344 26.0471 14.1347C26.0468 14.1351 26.0465 14.1355 26.0463 14.136L26.0437 14.1432C26.0353 14.1694 26.0371 14.1978 26.0488 14.2227C26.0593 14.2455 26.0744 14.266 26.0931 14.2828C26.1269 14.313 26.1693 14.332 26.2143 14.3373C26.2356 14.3402 26.2572 14.3385 26.2778 14.3324C26.2963 14.3289 26.3144 14.324 26.3321 14.3178C26.3619 14.3065 26.3837 14.2994 26.3961 14.3073C26.408 14.3148 26.4116 14.3383 26.3939 14.3783C26.381 14.4027 26.3639 14.4247 26.3433 14.4432C26.3185 14.4728 26.2863 14.4952 26.2499 14.5082C26.1627 14.5434 26.0658 14.5466 25.9766 14.517C25.9105 14.4951 25.8513 14.4566 25.8046 14.405C25.771 14.3676 25.7446 14.3244 25.7265 14.2776C25.7057 14.222 25.6963 14.1629 25.6988 14.1036C25.7005 14.0587 25.7152 14.0151 25.741 13.9783L25.8057 13.8855C25.8396 13.8367 25.8794 13.7923 25.9241 13.7532C25.949 13.7314 25.9755 13.7114 26.0033 13.6934C26.033 13.6768 26.0637 13.6622 26.0954 13.6497C26.245 13.5929 26.4042 13.5653 26.5642 13.5686C26.6892 13.5691 26.814 13.5801 26.9372 13.6014L27.276 13.6553L27.3613 13.6699L27.4448 13.691L27.6124 13.7342C28.0643 13.8517 28.5007 14.0223 28.9125 14.2423C29.5927 14.6231 30.1986 15.1236 30.701 15.7196C30.7067 15.7175 30.712 15.7156 30.7187 15.7133Z" fill="#3498DB"/>
    <path id="Vector_3" d="M20.1699 27.8042L20.5268 28.004L20.8702 28.2267L20.9557 28.2829L21.0376 28.3443L21.2014 28.4675C21.2556 28.5089 21.3108 28.5489 21.3641 28.5916L21.5191 28.7259C21.7265 28.904 21.9237 29.0937 22.1099 29.294L22.3775 29.6045C22.4652 29.7091 22.5424 29.8217 22.6249 29.93C22.9411 30.3712 23.2093 30.8449 23.4247 31.3431C23.6332 31.8407 23.7911 32.3579 23.8962 32.8871C23.9202 33.0278 23.9494 33.1676 23.9675 33.3091L24.0147 33.7348L24.0355 34.1628C24.0428 34.3054 24.0334 34.4486 24.033 34.5914C24.0144 35.1634 23.9329 35.7317 23.79 36.2859L23.6783 36.6759C23.6461 36.788 23.5746 36.8846 23.4769 36.9481C23.3791 37.0116 23.2617 37.0376 23.1463 37.0214C23.0308 37.0052 22.9251 36.9479 22.8486 36.8599C22.7721 36.772 22.73 36.6594 22.7299 36.5428L22.7301 36.5202C22.7312 35.2617 22.7285 33.964 22.9704 32.6604C23.0892 32.0007 23.2837 31.3568 23.55 30.7415C23.8219 30.1092 24.1948 29.5253 24.654 29.0125C25.125 28.5046 25.6784 28.08 26.2908 27.7563C26.8851 27.4461 27.5103 27.1989 28.1562 27.0191C28.4737 26.9284 28.792 26.8509 29.1115 26.7824C29.4318 26.7147 29.7598 26.655 30.0987 26.618C30.445 26.5771 30.7943 26.5667 31.1425 26.5871C31.5077 26.6086 31.8687 26.6769 32.2165 26.7902C32.3312 26.8276 32.4315 26.8994 32.5037 26.9959C32.576 27.0924 32.6168 27.2089 32.6204 27.3294C32.624 27.4499 32.5904 27.5686 32.524 27.6693C32.4577 27.77 32.3619 27.8477 32.2497 27.8919L32.2371 27.8968C31.6894 28.1007 31.1102 28.2072 30.5258 28.2116C29.9057 28.2154 29.2863 28.1661 28.6746 28.0644C28.0681 27.9803 27.4676 27.8573 26.8768 27.6962C26.5715 27.6116 26.2716 27.5085 25.9789 27.3873C25.6774 27.265 25.3864 27.118 25.109 26.948C24.8245 26.7743 24.5574 26.5735 24.3116 26.3483C24.0671 26.1219 23.8457 25.8716 23.6508 25.6013C23.2801 25.0787 22.9792 24.5101 22.7556 23.9098C22.3161 22.7564 22.0446 21.5459 21.9495 20.3154C21.9383 20.1619 21.9288 20.0083 21.9235 19.8545C21.9201 19.7776 21.9176 19.7007 21.9166 19.6238C21.9154 19.5462 21.9126 19.4743 21.9142 19.38C21.9142 19.1727 21.9448 18.9665 22.0052 18.7682C22.0465 18.6371 22.1083 18.5134 22.1882 18.4016C22.2836 18.2694 22.407 18.1598 22.5495 18.0807L22.5555 18.0774C22.6253 18.0393 22.7019 18.0154 22.7809 18.007C22.8599 17.9985 22.9397 18.0057 23.016 18.0281C23.0922 18.0506 23.1632 18.0878 23.2251 18.1377C23.2869 18.1876 23.3383 18.2491 23.3763 18.3189C23.4172 18.3945 23.4418 18.4777 23.4485 18.5634C23.627 21.0151 22.9942 23.4575 21.6476 25.5141C21.334 25.992 20.9624 26.4291 20.5412 26.8154C20.3255 27.0103 20.0944 27.1876 19.8502 27.3454C19.605 27.504 19.3456 27.6394 19.0753 27.75C18.6467 27.932 18.1825 28.0148 17.7174 27.9924C17.4192 27.9813 17.1281 27.8987 16.8685 27.7516C16.5893 27.5738 16.6446 27.451 16.8878 27.3938C17.0114 27.3581 17.1842 27.336 17.4012 27.2946C17.6634 27.2457 17.9221 27.1798 18.1758 27.0974C18.5652 26.9658 18.9333 26.7781 19.2686 26.5403C19.6174 26.2905 19.9361 26.001 20.2182 25.6777C20.6255 25.2051 20.9751 24.6856 21.2597 24.1304C21.5547 23.573 21.7943 22.988 21.9751 22.3838C22.3393 21.1752 22.4696 19.9083 22.3592 18.6509L23.0786 19.0371C23.0787 19.0376 23.0798 19.039 23.0787 19.0373L23.076 19.0335C23.0765 19.0343 23.077 19.035 23.0776 19.0357C23.0791 19.0376 23.0805 19.039 23.0797 19.038V19.0394C23.0756 19.0453 23.0722 19.0516 23.0695 19.0583C23.0507 19.1025 23.0386 19.1492 23.0335 19.197C23.024 19.2719 23.0202 19.3474 23.0222 19.4229L23.0328 19.7089C23.0527 20.0977 23.0938 20.485 23.1502 20.8695C23.2659 21.6374 23.4596 22.3916 23.728 23.1203C23.9134 23.6379 24.1553 24.1334 24.4493 24.598C24.5897 24.8164 24.7471 25.0233 24.92 25.217C25.0032 25.3102 25.091 25.3992 25.1832 25.4836C25.2297 25.5248 25.273 25.569 25.3208 25.6086L25.4639 25.7272C25.8928 26.0559 26.3735 26.3108 26.8862 26.4815C27.4286 26.6648 27.9854 26.8024 28.5508 26.8927C29.1173 26.9981 29.6905 27.0638 30.2662 27.0895C30.8009 27.1154 31.3355 27.0379 31.8408 26.8612L31.859 27.8399C31.3588 27.6698 30.7937 27.6419 30.2134 27.7003C29.9231 27.7278 29.6284 27.7758 29.3306 27.8331C29.0324 27.8914 28.7362 27.9569 28.4451 28.0322C27.8213 28.1859 27.2194 28.4178 26.6538 28.7224C26.104 29.0173 25.6164 29.4156 25.2175 29.8954C24.8223 30.388 24.5101 30.9418 24.2931 31.5349C24.0695 32.1423 23.9134 32.7723 23.8275 33.4138C23.6833 34.4241 23.6679 35.4678 23.6546 36.5254L22.8007 36.3852C23.3695 34.7085 23.1711 32.7759 22.3198 31.2041C22.2641 31.1073 22.2148 31.0064 22.1542 30.9125L21.9721 30.6311C21.9103 30.5381 21.8393 30.4518 21.7735 30.3615C21.7394 30.3174 21.7079 30.271 21.6717 30.2286L21.5618 30.1025C21.4161 29.9334 21.2619 29.7718 21.0998 29.6183C20.9298 29.4732 20.7651 29.3211 20.5809 29.1926C20.4926 29.1234 20.4008 29.0587 20.3059 28.9988C20.211 28.9389 20.1183 28.8752 20.0216 28.8181L19.7262 28.6548C19.6285 28.5989 19.5234 28.5571 19.4224 28.5073C19.0129 28.3168 18.5847 28.1693 18.1446 28.0674C17.0961 27.8212 16.0074 27.8 14.9501 28.0053L14.9391 27.5857C15.5722 27.7782 16.2367 27.8456 16.8956 27.7841C17.2696 27.7489 17.4595 27.7389 17.4579 27.8193C17.4554 27.8549 17.406 27.9165 17.2995 27.9866C17.2349 28.0291 17.1673 28.0669 17.0972 28.0996C17.0562 28.1196 17.0116 28.1397 16.9628 28.1585C16.9384 28.1679 16.9133 28.1787 16.8869 28.1872C16.8602 28.1949 16.8326 28.2026 16.8042 28.2101C16.1434 28.3837 15.453 28.4135 14.7797 28.2977C14.6682 28.2781 14.5666 28.2219 14.4908 28.1378C14.415 28.0538 14.3696 27.9468 14.3617 27.8339C14.3537 27.7211 14.3838 27.6088 14.4471 27.515C14.5104 27.4212 14.6032 27.3513 14.7108 27.3164L14.7535 27.3027C15.4224 27.0894 16.1204 26.9813 16.8225 26.982C17.399 26.9804 17.9733 27.0538 18.5309 27.2005C19.0923 27.3458 19.6362 27.5518 20.153 27.8149C20.1584 27.8111 20.1636 27.8077 20.1699 27.8042Z" fill="#3498DB"/>
    </g>
    </svg>