<svg width="33" height="32" viewBox="0 0 33 32" fill="none" xmlns="http://www.w3.org/2000/svg">
<g id="diversity_3_FILL0_wght400_GRAD0_opsz24 1">
<path id="Vector" d="M3.16668 26.6667C2.7889 26.6667 2.47223 26.5389 2.21668 26.2833C1.96112 26.0278 1.83334 25.7111 1.83334 25.3333V21.3333C1.83334 20.6 2.09445 19.9722 2.61668 19.45C3.1389 18.9278 3.76668 18.6667 4.50001 18.6667H8.86668C9.31112 18.6667 9.73334 18.7778 10.1333 19C10.5333 19.2222 10.8556 19.5222 11.1 19.9C11.7445 20.7667 12.5389 21.4445 13.4833 21.9333C14.4278 22.4222 15.4333 22.6667 16.5 22.6667C17.5889 22.6667 18.6056 22.4222 19.55 21.9333C20.4945 21.4445 21.2778 20.7667 21.9 19.9C22.1889 19.5222 22.5278 19.2222 22.9167 19C23.3056 18.7778 23.7111 18.6667 24.1333 18.6667H28.5C29.2333 18.6667 29.8611 18.9278 30.3833 19.45C30.9056 19.9722 31.1667 20.6 31.1667 21.3333V25.3333C31.1667 25.7111 31.0389 26.0278 30.7833 26.2833C30.5278 26.5389 30.2111 26.6667 29.8333 26.6667H23.1667C22.7889 26.6667 22.4722 26.5389 22.2167 26.2833C21.9611 26.0278 21.8333 25.7111 21.8333 25.3333V23.6333C21.0556 24.1889 20.2167 24.6111 19.3167 24.9C18.4167 25.1889 17.4778 25.3333 16.5 25.3333C15.5445 25.3333 14.6111 25.1833 13.7 24.8833C12.7889 24.5833 11.9445 24.1556 11.1667 23.6V25.3333C11.1667 25.7111 11.0389 26.0278 10.7833 26.2833C10.5278 26.5389 10.2111 26.6667 9.83334 26.6667H3.16668ZM16.5 21.3333C15.6556 21.3333 14.8556 21.1389 14.1 20.75C13.3445 20.3611 12.7111 19.8222 12.2 19.1333C11.8222 18.5778 11.35 18.1389 10.7833 17.8167C10.2167 17.4945 9.60001 17.3333 8.93334 17.3333C9.42223 16.5111 10.4556 15.8611 12.0333 15.3833C13.6111 14.9056 15.1 14.6667 16.5 14.6667C17.9 14.6667 19.3889 14.9056 20.9667 15.3833C22.5445 15.8611 23.5778 16.5111 24.0667 17.3333C23.4222 17.3333 22.8111 17.4945 22.2333 17.8167C21.6556 18.1389 21.1778 18.5778 20.8 19.1333C20.3111 19.8445 19.6889 20.3889 18.9333 20.7667C18.1778 21.1445 17.3667 21.3333 16.5 21.3333ZM5.83334 17.3333C4.72223 17.3333 3.77779 16.9445 3.00001 16.1667C2.22223 15.3889 1.83334 14.4445 1.83334 13.3333C1.83334 12.2222 2.22223 11.2778 3.00001 10.5C3.77779 9.72223 4.72223 9.33334 5.83334 9.33334C6.94445 9.33334 7.8889 9.72223 8.66668 10.5C9.44446 11.2778 9.83334 12.2222 9.83334 13.3333C9.83334 14.4445 9.44446 15.3889 8.66668 16.1667C7.8889 16.9445 6.94445 17.3333 5.83334 17.3333ZM27.1667 17.3333C26.0556 17.3333 25.1111 16.9445 24.3333 16.1667C23.5556 15.3889 23.1667 14.4445 23.1667 13.3333C23.1667 12.2222 23.5556 11.2778 24.3333 10.5C25.1111 9.72223 26.0556 9.33334 27.1667 9.33334C28.2778 9.33334 29.2222 9.72223 30 10.5C30.7778 11.2778 31.1667 12.2222 31.1667 13.3333C31.1667 14.4445 30.7778 15.3889 30 16.1667C29.2222 16.9445 28.2778 17.3333 27.1667 17.3333ZM16.5 13.3333C15.3889 13.3333 14.4445 12.9445 13.6667 12.1667C12.8889 11.3889 12.5 10.4445 12.5 9.33334C12.5 8.22223 12.8889 7.27779 13.6667 6.50001C14.4445 5.72223 15.3889 5.33334 16.5 5.33334C17.6111 5.33334 18.5556 5.72223 19.3333 6.50001C20.1111 7.27779 20.5 8.22223 20.5 9.33334C20.5 10.4445 20.1111 11.3889 19.3333 12.1667C18.5556 12.9445 17.6111 13.3333 16.5 13.3333Z" fill="#3498DB"/>
</g>
</svg>
