<svg width="33" height="32" viewBox="0 0 33 32" fill="none" xmlns="http://www.w3.org/2000/svg">
<g id="shopping_cart_checkout_FILL0_wght400_GRAD0_opsz24 1">
<path id="Vector" d="M9.83334 29.3333C9.1 29.3333 8.47223 29.0722 7.95 28.55C7.42778 28.0278 7.16667 27.4 7.16667 26.6667C7.16667 25.9333 7.42778 25.3055 7.95 24.7833C8.47223 24.2611 9.1 24 9.83334 24C10.5667 24 11.1944 24.2611 11.7167 24.7833C12.2389 25.3055 12.5 25.9333 12.5 26.6667C12.5 27.4 12.2389 28.0278 11.7167 28.55C11.1944 29.0722 10.5667 29.3333 9.83334 29.3333ZM23.1667 29.3333C22.4333 29.3333 21.8056 29.0722 21.2833 28.55C20.7611 28.0278 20.5 27.4 20.5 26.6667C20.5 25.9333 20.7611 25.3055 21.2833 24.7833C21.8056 24.2611 22.4333 24 23.1667 24C23.9 24 24.5278 24.2611 25.05 24.7833C25.5722 25.3055 25.8333 25.9333 25.8333 26.6667C25.8333 27.4 25.5722 28.0278 25.05 28.55C24.5278 29.0722 23.9 29.3333 23.1667 29.3333ZM4.5 5.33332H3.16667C2.78889 5.33332 2.47222 5.20555 2.21667 4.94999C1.96111 4.69443 1.83334 4.37777 1.83334 3.99999C1.83334 3.62221 1.96111 3.30555 2.21667 3.04999C2.47222 2.79443 2.78889 2.66666 3.16667 2.66666H5.36667C5.61111 2.66666 5.84445 2.73332 6.06667 2.86666C6.28889 2.99999 6.45556 3.18888 6.56667 3.43332L11.8667 14.6667H21.2L26.0333 5.99999C26.1444 5.77777 26.3 5.6111 26.5 5.49999C26.7 5.38888 26.9222 5.33332 27.1667 5.33332C27.6778 5.33332 28.0611 5.54999 28.3167 5.98332C28.5722 6.41666 28.5778 6.85555 28.3333 7.29999L23.5667 15.9333C23.3222 16.3778 22.9944 16.7222 22.5833 16.9667C22.1722 17.2111 21.7222 17.3333 21.2333 17.3333H11.3L9.83334 20H24.5C24.8778 20 25.1944 20.1278 25.45 20.3833C25.7056 20.6389 25.8333 20.9555 25.8333 21.3333C25.8333 21.7111 25.7056 22.0278 25.45 22.2833C25.1944 22.5389 24.8778 22.6667 24.5 22.6667H9.83334C8.83334 22.6667 8.07223 22.2333 7.55 21.3667C7.02778 20.5 7.01111 19.6222 7.5 18.7333L9.3 15.4667L4.5 5.33332ZM16.7333 9.33332H12.5C12.1222 9.33332 11.8056 9.20554 11.55 8.94999C11.2944 8.69443 11.1667 8.37777 11.1667 7.99999C11.1667 7.62221 11.2944 7.30555 11.55 7.04999C11.8056 6.79443 12.1222 6.66666 12.5 6.66666H16.7333L15.5333 5.46666C15.2667 5.19999 15.1389 4.88888 15.15 4.53332C15.1611 4.17777 15.3 3.86666 15.5667 3.59999C15.8333 3.35555 16.1444 3.22777 16.5 3.21666C16.8556 3.20555 17.1667 3.33332 17.4333 3.59999L20.9 7.06666C21.1667 7.33332 21.3 7.64443 21.3 7.99999C21.3 8.35555 21.1667 8.66666 20.9 8.93332L17.4333 12.4C17.1889 12.6444 16.8833 12.7722 16.5167 12.7833C16.15 12.7944 15.8333 12.6667 15.5667 12.4C15.3222 12.1555 15.2 11.8444 15.2 11.4667C15.2 11.0889 15.3222 10.7778 15.5667 10.5333L16.7333 9.33332Z" fill="#3498DB"/>
</g>
</svg>
